<svg width="17" height="17" viewBox="0 0 17 17" fill="none" xmlns="http://www.w3.org/2000/svg">
<g clip-path="url(#clip0_951_4577)">
<path d="M5.66699 11.3337H3.84658C2.22449 11.3337 1.41699 10.5262 1.41699 8.90408V3.84658C1.41699 2.22449 2.22449 1.41699 3.84658 1.41699H7.08366C8.70574 1.41699 9.51324 2.22449 9.51324 3.84658" stroke="#3C4866" stroke-linecap="round" stroke-linejoin="round"/>
<path d="M13.154 15.5837H9.91689C8.2948 15.5837 7.4873 14.7762 7.4873 13.1541V8.09658C7.4873 6.47449 8.2948 5.66699 9.91689 5.66699H13.154C14.7761 5.66699 15.5836 6.47449 15.5836 8.09658V13.1541C15.5836 14.7762 14.7761 15.5837 13.154 15.5837Z" stroke="#3C4866" stroke-linecap="round" stroke-linejoin="round"/>
<path d="M10.5332 10.625H12.8424" stroke="#3C4866" stroke-linecap="round" stroke-linejoin="round"/>
<path d="M11.6875 11.7799V9.4707" stroke="#3C4866" stroke-linecap="round" stroke-linejoin="round"/>
</g>
<defs>
<clipPath id="clip0_951_4577">
<rect width="17" height="17" fill="white"/>
</clipPath>
</defs>
</svg>
