<svg width="15" height="15" viewBox="0 0 15 15" fill="none" xmlns="http://www.w3.org/2000/svg">
<path d="M13.75 10.4626V2.91881C13.75 2.16881 13.1375 1.61256 12.3937 1.67506H12.3563C11.0438 1.78756 9.05 2.45631 7.9375 3.15631L7.83125 3.22506C7.65 3.33756 7.35 3.33756 7.16875 3.22506L7.0125 3.13131C5.9 2.43756 3.9125 1.77506 2.6 1.66881C1.85625 1.60631 1.25 2.16881 1.25 2.91256V10.4626C1.25 11.0626 1.7375 11.6251 2.3375 11.7001L2.51875 11.7251C3.875 11.9063 5.96875 12.5938 7.16875 13.2501L7.19375 13.2626C7.3625 13.3563 7.63125 13.3563 7.79375 13.2626C8.99375 12.6001 11.0938 11.9063 12.4563 11.7251L12.6625 11.7001C13.2625 11.6251 13.75 11.0626 13.75 10.4626Z" stroke="#3C4866" stroke-linecap="round" stroke-linejoin="round"/>
<path d="M7.5 3.43164V12.8066" stroke="#3C4866" stroke-linecap="round" stroke-linejoin="round"/>
<path d="M4.84375 5.30664H3.4375" stroke="#3C4866" stroke-linecap="round" stroke-linejoin="round"/>
<path d="M5.3125 7.18164H3.4375" stroke="#3C4866" stroke-linecap="round" stroke-linejoin="round"/>
</svg>
