<svg width="15" height="15" viewBox="0 0 15 15" fill="none" xmlns="http://www.w3.org/2000/svg">
<path d="M13.6314 2.46218C12.6689 4.86218 10.2564 8.12468 8.2377 9.74343L7.00645 10.7309C6.8502 10.8434 6.69395 10.9434 6.51895 11.0122C6.51895 10.8997 6.5127 10.7747 6.49395 10.6559C6.4252 10.1309 6.1877 9.64343 5.76895 9.22468C5.34395 8.79968 4.8252 8.54968 4.29395 8.48093C4.16895 8.47468 4.04395 8.46218 3.91895 8.47468C3.9877 8.28093 4.09395 8.09968 4.2252 7.94968L5.2002 6.71843C6.8127 4.69968 10.0877 2.27468 12.4814 1.31843C12.8502 1.18093 13.2064 1.28093 13.4314 1.51218C13.6689 1.74343 13.7814 2.09968 13.6314 2.46218Z" stroke="#3C4866" stroke-linecap="round" stroke-linejoin="round"/>
<path d="M6.51831 11.0127C6.51831 11.7002 6.25581 12.3565 5.76206 12.8565C5.38081 13.2377 4.86206 13.5002 4.24331 13.5815L2.70581 13.7502C1.86831 13.844 1.14956 13.1315 1.24956 12.2815L1.41831 10.744C1.56831 9.37525 2.71206 8.50025 3.92456 8.47525C4.04956 8.469 4.18081 8.47524 4.29956 8.48149C4.83081 8.55024 5.34956 8.794 5.77456 9.22525C6.19331 9.644 6.43081 10.1315 6.49956 10.6565C6.50581 10.7752 6.51831 10.894 6.51831 11.0127Z" stroke="#3C4866" stroke-linecap="round" stroke-linejoin="round"/>
<path d="M8.89961 9.04414C8.89961 7.41289 7.57461 6.08789 5.94336 6.08789" stroke="#3C4866" stroke-linecap="round" stroke-linejoin="round"/>
</svg>
