<svg width="15" height="15" viewBox="0 0 15 15" fill="none" xmlns="http://www.w3.org/2000/svg">
<path d="M6.25 10C6.25 8.9625 6.25 8.125 8.125 8.125H10.625C12.5 8.125 12.5 7.5 12.5 6.25V5C12.5 3.75 12.5 3.125 10.625 3.125H10" stroke="#3C4866" stroke-linecap="round" stroke-linejoin="round"/>
<path d="M7.5 1.25H5C4.59375 2.46875 4.59375 3.78125 5 5H7.5C7.90625 3.78125 7.90625 2.46875 7.5 1.25Z" stroke="#3C4866" stroke-linecap="round" stroke-linejoin="round"/>
<path d="M5 1.25H4.375C3.125 1.25 2.5 1.875 2.5 3.125C2.5 4.375 3.125 5 4.375 5H5C4.375 3.75 4.375 2.5 5 1.25Z" stroke="#3C4866" stroke-linecap="round" stroke-linejoin="round"/>
<path d="M8.125 1.25H7.5C8.125 2.5 8.125 3.75 7.5 5H8.125C9.375 5 10 4.375 10 3.125C10 1.875 9.375 1.25 8.125 1.25Z" stroke="#3C4866" stroke-linecap="round" stroke-linejoin="round"/>
<path d="M5.9375 13.75H6.5625C7.5 13.75 7.5 13.125 7.5 12.8125V10.9375C7.5 10.625 7.5 10 6.5625 10H5.9375C5 10 5 10.625 5 10.9375V12.8125C5 13.125 5 13.75 5.9375 13.75Z" stroke="#3C4866" stroke-linecap="round" stroke-linejoin="round"/>
</svg>
