<svg width="20" height="20" viewBox="0 0 20 20" fill="none" xmlns="http://www.w3.org/2000/svg">
<path d="M5.63339 18.3337H14.3667C16.6667 18.3337 17.5834 16.9253 17.6917 15.2087L18.1251 8.32533C18.2417 6.52533 16.8084 5.00033 15.0001 5.00033C14.4917 5.00033 14.0251 4.70866 13.7917 4.25866L13.1917 3.05033C12.8084 2.29199 11.8084 1.66699 10.9584 1.66699H9.05006C8.19172 1.66699 7.19172 2.29199 6.80839 3.05033L6.20839 4.25866C5.97506 4.70866 5.50839 5.00033 5.00006 5.00033C3.19172 5.00033 1.75839 6.52533 1.87506 8.32533L2.30839 15.2087C2.40839 16.9253 3.33339 18.3337 5.63339 18.3337Z" stroke="#18143A" stroke-width="1.5" stroke-linecap="round" stroke-linejoin="round"/>
<path d="M8.75 6.66699H11.25" stroke="#18143A" stroke-width="1.5" stroke-linecap="round" stroke-linejoin="round"/>
<path d="M9.99996 14.9997C11.4916 14.9997 12.7083 13.783 12.7083 12.2913C12.7083 10.7997 11.4916 9.58301 9.99996 9.58301C8.50829 9.58301 7.29163 10.7997 7.29163 12.2913C7.29163 13.783 8.50829 14.9997 9.99996 14.9997Z" stroke="#18143A" stroke-width="1.5" stroke-linecap="round" stroke-linejoin="round"/>
</svg>
