<svg width="15" height="15" viewBox="0 0 15 15" fill="none" xmlns="http://www.w3.org/2000/svg">
<path d="M5.625 13.7257H9.375C12.5 13.7257 13.75 12.4798 13.75 9.36503V5.6273C13.75 2.51251 12.5 1.2666 9.375 1.2666H5.625C2.5 1.2666 1.25 2.51251 1.25 5.6273V9.36503C1.25 12.4798 2.5 13.7257 5.625 13.7257Z" stroke="#3C4866" stroke-linecap="round" stroke-linejoin="round"/>
<path d="M9.6875 11.5447C10.375 11.5447 10.9375 10.9841 10.9375 10.2988V4.6922C10.9375 4.00695 10.375 3.44629 9.6875 3.44629C9 3.44629 8.4375 4.00695 8.4375 4.6922V10.2988C8.4375 10.9841 8.99375 11.5447 9.6875 11.5447Z" stroke="#3C4866" stroke-linecap="round" stroke-linejoin="round"/>
<path d="M5.3125 11.5461C6 11.5461 6.5625 10.9853 6.5625 10.2999V8.11919C6.5625 7.43381 6 6.87305 5.3125 6.87305C4.625 6.87305 4.0625 7.43381 4.0625 8.11919V10.2999C4.0625 10.9853 4.61875 11.5461 5.3125 11.5461Z" stroke="#3C4866" stroke-linecap="round" stroke-linejoin="round"/>
</svg>
