<svg width="21" height="21" viewBox="0 0 21 21" fill="none" xmlns="http://www.w3.org/2000/svg">
<path d="M12.25 13.9998C12.25 15.5486 11.5763 16.9486 10.5 17.9023C9.5725 18.7423 8.3475 19.2498 7 19.2498C4.10375 19.2498 1.75 16.8961 1.75 13.9998C1.75 11.5848 3.395 9.53734 5.6175 8.93359C6.22125 10.4561 7.51625 11.6286 9.1175 12.0661C9.555 12.1886 10.0187 12.2498 10.5 12.2498C10.9813 12.2498 11.445 12.1886 11.8825 12.0661C12.1187 12.6611 12.25 13.3173 12.25 13.9998Z" stroke="#18143A" stroke-width="1.5" stroke-linecap="round" stroke-linejoin="round"/>
<path d="M15.75 7C15.75 7.6825 15.6187 8.33875 15.3825 8.93375C14.7787 10.4563 13.4837 11.6287 11.8825 12.0662C11.445 12.1887 10.9813 12.25 10.5 12.25C10.0187 12.25 9.555 12.1887 9.1175 12.0662C7.51625 11.6287 6.22125 10.4563 5.6175 8.93375C5.38125 8.33875 5.25 7.6825 5.25 7C5.25 4.10375 7.60375 1.75 10.5 1.75C13.3962 1.75 15.75 4.10375 15.75 7Z" stroke="#18143A" stroke-width="1.5" stroke-linecap="round" stroke-linejoin="round"/>
<path d="M19.25 13.9998C19.25 16.8961 16.8962 19.2498 14 19.2498C12.6525 19.2498 11.4275 18.7423 10.5 17.9023C11.5763 16.9486 12.25 15.5486 12.25 13.9998C12.25 13.3173 12.1187 12.6611 11.8825 12.0661C13.4837 11.6286 14.7787 10.4561 15.3825 8.93359C17.605 9.53734 19.25 11.5848 19.25 13.9998Z" stroke="#18143A" stroke-width="1.5" stroke-linecap="round" stroke-linejoin="round"/>
</svg>
