<svg width="21" height="21" viewBox="0 0 21 21" fill="none" xmlns="http://www.w3.org/2000/svg">
<path d="M8.75 3.9375V15.75C8.75 16.695 8.36499 17.5612 7.75249 18.1912L7.71751 18.2263C7.63876 18.305 7.55126 18.3838 7.47251 18.445C7.21001 18.6725 6.91249 18.8475 6.60624 18.97C6.50999 19.0137 6.41375 19.0487 6.3175 19.0837C5.97625 19.1975 5.60875 19.25 5.25 19.25C5.01375 19.25 4.77751 19.2237 4.55001 19.18C4.43626 19.1537 4.3225 19.1275 4.20875 19.0925C4.06875 19.0488 3.93751 19.005 3.80626 18.9437C3.80626 18.935 3.80625 18.935 3.7975 18.9437C3.5525 18.8212 3.31626 18.6813 3.09751 18.515L3.08875 18.5062C2.975 18.4187 2.87001 18.3313 2.77376 18.2263C2.67751 18.1213 2.58125 18.0163 2.485 17.9025C2.31875 17.6838 2.17876 17.4475 2.05626 17.2025C2.06501 17.1938 2.06501 17.1937 2.05626 17.1937C2.05626 17.1937 2.05625 17.185 2.0475 17.1763C1.995 17.0538 1.95124 16.9225 1.90749 16.7913C1.87249 16.6775 1.84624 16.5638 1.81999 16.45C1.77624 16.2225 1.75 15.9863 1.75 15.75V3.9375C1.75 2.625 2.625 1.75 3.9375 1.75H6.5625C7.875 1.75 8.75 2.625 8.75 3.9375Z" stroke="#18143A" stroke-width="1.5" stroke-linecap="round" stroke-linejoin="round"/>
<path d="M19.25 14.4375V17.0625C19.25 18.375 18.375 19.25 17.0625 19.25H5.25C5.60875 19.25 5.97625 19.1975 6.3175 19.0837C6.41375 19.0487 6.50999 19.0137 6.60624 18.97C6.91249 18.8475 7.21001 18.6725 7.47251 18.445C7.55126 18.3838 7.63876 18.305 7.71751 18.2263L7.75249 18.1912L13.7025 12.25H17.0625C18.375 12.25 19.25 13.125 19.25 14.4375Z" stroke="#18143A" stroke-width="1.5" stroke-linecap="round" stroke-linejoin="round"/>
<path d="M4.20848 19.0923C3.68348 18.9348 3.18474 18.646 2.77349 18.226C2.35349 17.8148 2.06473 17.316 1.90723 16.791C2.24848 17.8848 3.11473 18.751 4.20848 19.0923Z" stroke="#18143A" stroke-width="1.5" stroke-linecap="round" stroke-linejoin="round"/>
<path d="M16.0742 9.87858L13.7029 12.2498L7.75293 18.1911C8.36543 17.5611 8.75044 16.6948 8.75044 15.7498V7.29734L11.1217 4.92609C12.0492 3.99859 13.2917 3.99859 14.2192 4.92609L16.0742 6.78109C17.0017 7.70859 17.0017 8.95108 16.0742 9.87858Z" stroke="#18143A" stroke-width="1.5" stroke-linecap="round" stroke-linejoin="round"/>
<path d="M5.25 16.625C5.73325 16.625 6.125 16.2332 6.125 15.75C6.125 15.2668 5.73325 14.875 5.25 14.875C4.76675 14.875 4.375 15.2668 4.375 15.75C4.375 16.2332 4.76675 16.625 5.25 16.625Z" stroke="#18143A" stroke-width="1.5" stroke-linecap="round" stroke-linejoin="round"/>
</svg>
