<svg width="47" height="24" viewBox="0 0 47 24" fill="none" xmlns="http://www.w3.org/2000/svg">
<g clip-path="url(#clip0_125_2786)">
<path d="M21.9473 12.0796C21.9586 12.3079 21.9179 12.5358 21.8283 12.7463C21.757 12.9057 21.6346 13.037 21.4803 13.1196C21.3053 13.2043 21.1125 13.246 20.918 13.2411C20.7334 13.2464 20.5501 13.2089 20.3826 13.1315C20.2331 13.0605 20.1109 12.943 20.0346 12.7967C19.9847 12.7035 19.9487 12.6037 19.9275 12.5004C19.9008 12.3577 19.8878 12.2129 19.8888 12.0678V9.16406H18.6781V12.1804C18.6761 12.3865 18.6971 12.5922 18.7406 12.7937C18.7823 12.9703 18.8494 13.1399 18.9399 13.2974C19.115 13.5907 19.3725 13.8266 19.6806 13.9759C20.0667 14.158 20.491 14.2454 20.918 14.2307C21.158 14.2322 21.3974 14.2073 21.632 14.1567C21.8319 14.1123 22.025 14.0416 22.2061 13.9463C22.3685 13.8641 22.5171 13.7571 22.6463 13.6292C22.7668 13.5041 22.8672 13.3612 22.9438 13.2055C23.0933 12.888 23.1657 12.5398 23.155 12.1892V9.16406H21.9473V12.0796Z" fill="#11102C"/>
<path d="M25.963 9.26846C25.8028 9.36341 25.6514 9.47249 25.5108 9.59439V9.16476H24.4399V14.104H25.6506V10.7944C25.8117 10.5641 26.0387 10.3875 26.3021 10.2877C26.6161 10.1721 26.949 10.1158 27.2837 10.1218H27.3849V9.06402C27.2805 9.04863 27.1751 9.04169 27.0696 9.04328C26.6887 9.03743 26.3111 9.11427 25.963 9.26846Z" fill="#11102C"/>
<path d="M34.7622 13.5174C34.9822 13.2804 35.1512 13.0011 35.259 12.6967C35.3791 12.356 35.4385 11.997 35.4345 11.6359C35.4377 11.2752 35.3794 10.9165 35.262 10.5752C35.1567 10.2711 34.9884 9.99254 34.7682 9.75739C34.5494 9.52519 34.281 9.34494 33.9828 9.22999C33.6492 9.10103 33.2936 9.03764 32.9358 9.04332C32.5847 9.03837 32.2361 9.10178 31.9095 9.22999C31.6113 9.34494 31.3429 9.52519 31.1242 9.75739C30.9074 9.99356 30.7423 10.272 30.6393 10.5752C30.5194 10.9159 30.4601 11.2749 30.4638 11.6359C30.4603 11.9967 30.5187 12.3554 30.6363 12.6967C30.7416 13.0016 30.9098 13.2812 31.1301 13.5174C31.3497 13.7487 31.6178 13.9288 31.9154 14.0448C32.2491 14.1738 32.6047 14.2371 32.9625 14.2315C33.3136 14.2364 33.6622 14.173 33.9888 14.0448C34.2815 13.9262 34.5453 13.7463 34.7622 13.5174ZM33.4444 13.1381C33.2873 13.2066 33.1177 13.2419 32.9462 13.2419C32.7747 13.2419 32.605 13.2066 32.4479 13.1381C32.2965 13.0697 32.1624 12.9684 32.0552 12.8418C31.9354 12.6933 31.8473 12.5219 31.7964 12.3381C31.6737 11.884 31.6737 11.4056 31.7964 10.9515C31.8485 10.7688 31.9354 10.5978 32.0523 10.4478C32.1561 10.319 32.2899 10.2173 32.442 10.1515C32.5972 10.0821 32.7656 10.0468 32.9358 10.0478C33.1088 10.0466 33.2801 10.0819 33.4385 10.1515C33.5914 10.2172 33.7262 10.3189 33.8311 10.4478C33.948 10.5978 34.0349 10.7688 34.087 10.9515C34.2097 11.4056 34.2097 11.884 34.087 12.3381C34.0359 12.5212 33.9489 12.6924 33.8311 12.8418C33.7262 12.9682 33.594 13.0695 33.4444 13.1381Z" fill="#11102C"/>
<path d="M37.4602 13.9759C37.8464 14.158 38.2707 14.2454 38.6977 14.2307C38.9377 14.232 39.1771 14.2072 39.4116 14.1567C39.6114 14.1118 39.8044 14.0411 39.9857 13.9463C40.1479 13.8613 40.2954 13.7513 40.423 13.6204C40.5424 13.4943 40.6426 13.3516 40.7205 13.1967C40.869 12.8789 40.9403 12.5307 40.9287 12.1804V9.16406H39.718V12.0796C39.7278 12.3078 39.6872 12.5354 39.599 12.7463C39.5312 12.9032 39.4143 13.0341 39.2659 13.1196C39.093 13.1958 38.9061 13.2351 38.717 13.2351C38.528 13.2351 38.3411 13.1958 38.1682 13.1196C38.0199 13.0469 37.8982 12.9299 37.8202 12.7848C37.7703 12.6917 37.7343 12.5919 37.7131 12.4885C37.6875 12.3458 37.6755 12.2009 37.6774 12.0559V9.16406H36.4667V12.1804C36.4647 12.3865 36.4857 12.5922 36.5292 12.7937C36.5838 13.0499 36.6971 13.2902 36.8601 13.4957C37.0231 13.7013 37.2315 13.8666 37.4691 13.9789L37.4602 13.9759Z" fill="#11102C"/>
<path d="M43.4542 14.2223C43.7487 14.2242 44.0424 14.1903 44.3288 14.1216C44.5718 14.067 44.802 13.9664 45.007 13.8253C45.1945 13.6905 45.3465 13.5126 45.4502 13.3068C45.5606 13.0799 45.6147 12.8299 45.6079 12.5779C45.6163 12.3613 45.5724 12.1459 45.48 11.9498C45.3976 11.7959 45.283 11.6615 45.1438 11.5557C45.0042 11.4505 44.8486 11.3685 44.6827 11.3127C44.5148 11.2557 44.344 11.2073 44.1711 11.1675L43.835 11.0816C43.7213 11.0536 43.6099 11.0169 43.5018 10.972C43.4061 10.935 43.3205 10.8761 43.2519 10.8001C43.1899 10.7219 43.1582 10.6241 43.1627 10.5246C43.163 10.4601 43.1772 10.3964 43.2043 10.3379C43.2341 10.2746 43.2803 10.2204 43.3382 10.1809C43.4104 10.1288 43.4923 10.0915 43.5791 10.0712C43.6978 10.0417 43.8198 10.0277 43.942 10.0298C44.0614 10.0307 44.1806 10.0386 44.299 10.0535C44.4269 10.0683 44.5519 10.086 44.6798 10.1098C44.8077 10.1335 44.9356 10.1631 45.0605 10.1957C45.1855 10.2283 45.3015 10.2638 45.4145 10.2994V9.30679C45.1803 9.22358 44.9395 9.16015 44.6946 9.11716C44.412 9.06584 44.1252 9.04104 43.8379 9.04309C43.5987 9.04239 43.3605 9.07429 43.13 9.1379C42.9148 9.19866 42.7129 9.29917 42.535 9.4342C42.3653 9.57036 42.2281 9.74242 42.1334 9.9379C42.031 10.1618 41.9811 10.406 41.9877 10.652C41.9818 10.8471 42.0183 11.0411 42.0948 11.2209C42.1638 11.3698 42.2655 11.5014 42.3922 11.606C42.5258 11.7112 42.6754 11.7942 42.8355 11.852C43.0025 11.9175 43.1734 11.9729 43.3471 12.0179L43.7487 12.1216C43.865 12.1511 43.9785 12.1908 44.0878 12.2401C44.1779 12.2809 44.2589 12.3393 44.3258 12.412C44.3866 12.4839 44.4184 12.5758 44.415 12.6698C44.4176 12.764 44.3894 12.8565 44.3347 12.9335C44.2749 13.0096 44.1987 13.0714 44.1116 13.1142C44.0056 13.1658 43.8922 13.2008 43.7755 13.2179C43.6369 13.2412 43.4965 13.2521 43.356 13.2505C43.1447 13.2491 42.9339 13.2312 42.7254 13.1972C42.4742 13.1552 42.228 13.0877 41.9907 12.9957V13.9705C42.1903 14.0554 42.3988 14.118 42.6124 14.1572C42.8903 14.2049 43.1722 14.2268 43.4542 14.2223Z" fill="#11102C"/>
<path d="M26.323 20.4829C26.2121 20.4956 26.0998 20.4809 25.9961 20.4401C25.8923 20.3993 25.8002 20.3335 25.728 20.2488C25.6623 20.1176 25.6326 19.9714 25.6418 19.8251V17.4251H27.0696V16.4325H25.6269V15.0518H24.4162V16.4325H23.5V17.4251H24.4281V19.9851C24.4182 20.2343 24.4576 20.4829 24.5441 20.7169C24.6528 20.9761 24.8527 21.1868 25.1063 21.3095C25.4255 21.4567 25.7753 21.5258 26.1266 21.511C26.3037 21.5101 26.4806 21.4982 26.6561 21.4755C26.8209 21.4558 26.9839 21.4241 27.144 21.3806V20.3673C27.0148 20.4024 26.8837 20.4301 26.7513 20.4503C26.6096 20.4721 26.4664 20.483 26.323 20.4829Z" fill="#11102C"/>
<path d="M32.4241 17.1611C32.3542 17.0173 32.2607 16.8861 32.1474 16.773C32.0386 16.6669 31.9142 16.578 31.7785 16.5092C31.6409 16.4404 31.495 16.3896 31.3442 16.3581C31.1868 16.325 31.0263 16.3081 30.8653 16.3078C30.3873 16.298 29.9239 16.472 29.5713 16.7937C29.4748 16.8839 29.3872 16.9832 29.3096 17.09H29.2887C29.3086 16.9557 29.3234 16.8075 29.3334 16.6455C29.3334 16.4796 29.3334 16.2692 29.3334 16.0144V14.1033V9.16406H29.3155C29.1519 9.30983 28.9401 9.39041 28.7206 9.39041C28.5011 9.39041 28.2893 9.30983 28.1256 9.16406H28.1078V13.9907V21.3685H29.3215V17.97C29.4748 17.7684 29.6695 17.6017 29.8926 17.4811C30.0921 17.3714 30.3161 17.3133 30.5441 17.3122C30.7007 17.3091 30.8561 17.3405 30.9992 17.4041C31.133 17.4698 31.2385 17.5813 31.2966 17.7181C31.3344 17.7975 31.3586 17.8827 31.368 17.97C31.3841 18.0948 31.391 18.2205 31.3889 18.3463V21.3685H32.6025V18.1952C32.6057 17.9966 32.5898 17.7981 32.5549 17.6026C32.5331 17.4499 32.489 17.3011 32.4241 17.1611Z" fill="#11102C"/>
<path d="M40.9406 17.3891C40.8855 17.2119 40.8 17.0454 40.6878 16.8973C40.5847 16.7646 40.4588 16.6512 40.3159 16.5625C40.1729 16.4733 40.0161 16.4082 39.8519 16.3699C39.6806 16.3279 39.5047 16.307 39.3283 16.3077C39.1464 16.3064 38.9652 16.3303 38.7899 16.3788C38.6287 16.4209 38.473 16.4816 38.3259 16.5595C38.191 16.6302 38.0652 16.7167 37.951 16.8173C37.8514 16.9071 37.7608 17.0064 37.6804 17.1136H37.6595L37.5495 16.4262H36.547V21.3684H37.7577V17.9699C37.9115 17.7665 38.1085 17.5995 38.3348 17.481C38.5427 17.3711 38.7747 17.3141 39.01 17.3151C39.1678 17.3099 39.3244 17.3446 39.4652 17.4158C39.6005 17.4966 39.6995 17.626 39.7418 17.7773C39.7731 17.857 39.7921 17.9409 39.7983 18.0262C39.8113 18.1393 39.8172 18.2531 39.8162 18.3669V21.3684H41.0269V18.1654C41.0269 17.9995 41.0269 17.8691 41.009 17.7328C40.998 17.6163 40.9751 17.5011 40.9406 17.3891Z" fill="#11102C"/>
<path d="M45.7239 16.4323L45.6733 16.9863H45.6525C45.4965 16.7858 45.2999 16.6203 45.0754 16.5004C44.8262 16.3696 44.548 16.3034 44.2663 16.3078C43.9886 16.3091 43.7141 16.3676 43.4602 16.4797C43.1948 16.5961 42.9582 16.769 42.7671 16.9863C42.5529 17.2323 42.3883 17.517 42.2822 17.8249C42.1538 18.2066 42.0925 18.6075 42.1008 19.0101C42.0916 19.3978 42.1521 19.7842 42.2792 20.1508C42.3822 20.4389 42.5431 20.7031 42.7522 20.9271C42.9364 21.1251 43.1646 21.2773 43.4185 21.3715C43.6646 21.4645 43.9258 21.5117 44.189 21.5108C44.3328 21.5105 44.4762 21.4966 44.6173 21.4693C44.749 21.4432 44.8776 21.4034 45.0011 21.3508C45.1122 21.3049 45.2197 21.2504 45.3223 21.1878C45.4131 21.1342 45.4996 21.0738 45.5811 21.0071C45.5811 21.0752 45.5811 21.1582 45.5811 21.2589C45.5811 21.3597 45.5811 21.4426 45.5811 21.5108V21.6293C45.5931 21.8124 45.5585 21.9956 45.4805 22.1619C45.4025 22.3281 45.2837 22.4721 45.1349 22.5804C44.7557 22.8049 44.3166 22.9083 43.8766 22.8767C43.6158 22.878 43.3552 22.8592 43.0973 22.8204C42.8573 22.781 42.6206 22.7235 42.3893 22.6486V23.6323C42.4868 23.6672 42.5861 23.6969 42.6868 23.7212C42.7998 23.7508 42.9277 23.7745 43.0646 23.7982C43.2014 23.8219 43.362 23.8367 43.5078 23.8486C43.6535 23.8604 43.8261 23.8663 43.9897 23.8663C44.2658 23.867 44.5414 23.8442 44.8137 23.7982C45.0586 23.7553 45.298 23.6858 45.5276 23.5908C45.7355 23.5031 45.9298 23.3864 46.1047 23.2441C46.2715 23.107 46.4125 22.9415 46.5211 22.7552C46.6186 22.583 46.6898 22.3972 46.7323 22.2041C46.7838 21.9596 46.8077 21.7102 46.8037 21.4604V16.4234L45.7239 16.4323ZM45.5752 20.0382C45.5184 20.1023 45.4557 20.1608 45.3878 20.213C45.3107 20.2731 45.228 20.3257 45.1409 20.3701C45.0456 20.4186 44.946 20.4583 44.8434 20.4886C44.7309 20.5188 44.6149 20.5338 44.4983 20.533C44.3262 20.5375 44.1557 20.4998 44.0016 20.4234C43.8592 20.3496 43.7376 20.2416 43.6476 20.1093C43.5464 19.9567 43.4738 19.787 43.4334 19.6086C43.3834 19.3909 43.3595 19.1681 43.362 18.9449C43.3595 18.746 43.3775 18.5475 43.4156 18.3523C43.4447 18.2011 43.4916 18.0539 43.5554 17.9138C43.6071 17.8052 43.6753 17.7053 43.7577 17.6175C43.8288 17.5414 43.911 17.4765 44.0016 17.4249C44.0804 17.3796 44.1656 17.3467 44.2544 17.3271C44.3325 17.309 44.4123 17.2991 44.4924 17.2975C44.7006 17.3033 44.9045 17.3581 45.0873 17.4575C45.2721 17.5513 45.436 17.6813 45.5692 17.8397L45.5752 20.0382Z" fill="#11102C"/>
<path d="M28.7384 8.9544C29.228 8.9544 29.6248 8.55909 29.6248 8.07144C29.6248 7.58379 29.228 7.18848 28.7384 7.18848C28.2488 7.18848 27.8519 7.58379 27.8519 8.07144C27.8519 8.55909 28.2488 8.9544 28.7384 8.9544Z" fill="#11102C"/>
<path d="M12.571 20.5537C12.2065 19.9934 12.0009 19.3453 11.9761 18.6781C11.9404 17.3774 12.6097 16.1448 10.2329 15.3448V14.044C10.2329 14.044 10.3668 15.01 10.5006 15.1433C10.6345 15.2766 11.4734 15.644 11.8065 15.8455C12.1397 16.047 12.4431 16.5448 12.342 17.5107C12.2408 18.4766 12.1754 19.0781 12.7436 19.5137C12.7436 19.5137 13.0797 19.3685 13.0797 17.567C13.0797 17.567 13.1451 16.9448 13.1898 16.5448C13.1598 15.978 12.9399 15.4375 12.5651 15.01C12.2676 14.7137 11.6727 13.967 11.6518 13.5433C11.905 13.9138 12.2049 14.2504 12.5442 14.5448C12.8262 14.769 13.0676 15.0396 13.2582 15.3448C13.2582 15.3448 13.636 14.4559 13.1243 12.9892C12.6127 11.5226 12.5294 12.1003 12.4758 10.764C12.5006 10.5655 12.4854 10.3641 12.4312 10.1714C12.342 10.0144 11.7857 9.43663 11.8363 8.98626C11.8868 8.53589 12.5502 8.45293 13.7549 8.56552C13.8604 8.54234 13.961 8.50125 14.0524 8.44404C13.8906 8.44127 13.7314 8.40228 13.5867 8.32996C13.442 8.25765 13.3155 8.15386 13.2165 8.02626C13.5068 8.22721 13.8537 8.33098 14.2071 8.32256C14.288 8.24766 14.3581 8.1619 14.4153 8.06774C14.5372 8.06318 14.657 8.03466 14.7678 7.9838C14.8786 7.93295 14.9782 7.86078 15.0608 7.77145C15.3077 7.47515 15.3583 7.00404 15.162 7.02774C15.162 7.02774 14.6265 7.19367 13.8888 6.62478C13.1511 6.05589 12.5829 5.65885 11.4793 5.52552C10.3757 5.39219 9.16798 5.70626 9.06982 7.04848C8.97165 8.39071 9.33754 10.0944 9.06982 10.7285C8.79045 11.5534 8.699 12.4299 8.8021 13.2944C8.90026 14.0944 8.93596 17.2974 8.03165 19.5166L7.96026 19.6885C6.7251 19.1003 5.64238 18.2369 4.79586 17.1651C3.94935 16.0934 3.36176 14.842 3.07855 13.5078C2.79534 12.1736 2.82411 10.7924 3.16264 9.4711C3.50116 8.14977 4.14036 6.92374 5.03078 5.88788C5.92119 4.85202 7.03894 4.03411 8.29753 3.49744C9.55612 2.96077 10.9218 2.71973 12.2889 2.79297C13.656 2.86622 14.9878 3.25178 16.1814 3.91983C17.3749 4.58788 18.3981 5.5205 19.1718 6.64552H22.2685C21.1337 4.31851 19.2479 2.43807 16.9129 1.30532C14.5778 0.17257 11.9288 -0.146972 9.38979 0.397861C6.85082 0.942695 4.56883 2.32039 2.90923 4.31034C1.24962 6.30029 0.308405 8.78738 0.236287 11.3734C0.16417 13.9594 0.965324 16.4947 2.51147 18.5733C4.05761 20.652 6.2593 22.1537 8.76399 22.8381C11.2687 23.5225 13.9315 23.3499 16.326 22.348C18.7206 21.3461 20.7083 19.5729 21.971 17.3122H18.7405C17.9834 18.2374 17.0469 19.0013 15.9869 19.5582C14.9269 20.1151 13.7652 20.4537 12.571 20.5537ZM12.1962 6.77589C12.1962 6.71729 12.2137 6.66 12.2463 6.61128C12.279 6.56255 12.3255 6.52458 12.3798 6.50215C12.4342 6.47972 12.494 6.47386 12.5517 6.48529C12.6094 6.49672 12.6624 6.52494 12.704 6.56638C12.7456 6.60782 12.774 6.66061 12.7854 6.71809C12.7969 6.77556 12.791 6.83514 12.7685 6.88928C12.746 6.94342 12.7079 6.9897 12.6589 7.02225C12.61 7.05481 12.5525 7.07219 12.4937 7.07219C12.4105 7.07192 12.3286 7.05156 12.255 7.01285C12.1815 6.97415 12.1184 6.91826 12.0713 6.84997L12.217 6.8796C12.2039 6.84655 12.1969 6.81142 12.1962 6.77589ZM9.70045 6.77589C9.81646 6.08848 10.8011 6.29885 10.8011 6.29885C10.8011 6.29885 9.98602 6.40256 9.93545 6.847C9.91645 7.03869 9.95082 7.23189 10.0348 7.40541C10.1187 7.57893 10.249 7.72608 10.4114 7.83071C10.2944 7.80978 10.1827 7.76578 10.083 7.70127C9.98327 7.63676 9.89749 7.55305 9.83071 7.45506C9.76392 7.35707 9.71747 7.24678 9.69408 7.13065C9.67069 7.01453 9.67083 6.89492 9.6945 6.77885L9.70045 6.77589Z" fill="#11102C"/>
<path d="M13.7252 18.6666C13.9036 18.6221 14.0226 17.2443 14.1267 16.1777C14.1915 15.5714 14.0501 14.961 13.7252 14.4443C13.7698 14.7554 13.6805 15.8221 13.5675 15.9762C13.4545 16.1303 13.6805 15.8221 13.4991 17.0666C13.3176 18.311 13.5437 18.7229 13.7252 18.6666Z" fill="#11102C"/>
<path d="M34.5777 16.305C35.0673 16.305 35.4642 15.9097 35.4642 15.422C35.4642 14.9344 35.0673 14.5391 34.5777 14.5391C34.0882 14.5391 33.6913 14.9344 33.6913 15.422C33.6913 15.9097 34.0882 16.305 34.5777 16.305Z" fill="#11102C"/>
<path d="M33.9709 16.4355V21.3689H35.1846V16.4355C35.0196 16.588 34.8028 16.6727 34.5778 16.6727C34.3527 16.6727 34.136 16.588 33.9709 16.4355Z" fill="#11102C"/>
</g>
<defs>
<clipPath id="clip0_125_2786">
<rect width="47" height="24" fill="white"/>
</clipPath>
</defs>
</svg>
