<svg width="15" height="15" viewBox="0 0 15 15" fill="none" xmlns="http://www.w3.org/2000/svg">
<path d="M12.5 8.75C13.1904 8.75 13.75 8.19036 13.75 7.5C13.75 6.80964 13.1904 6.25 12.5 6.25C11.8096 6.25 11.25 6.80964 11.25 7.5C11.25 8.19036 11.8096 8.75 12.5 8.75Z" stroke="#3C4866" stroke-linecap="round" stroke-linejoin="round"/>
<path d="M12.5 3.75C13.1904 3.75 13.75 3.19036 13.75 2.5C13.75 1.80964 13.1904 1.25 12.5 1.25C11.8096 1.25 11.25 1.80964 11.25 2.5C11.25 3.19036 11.8096 3.75 12.5 3.75Z" stroke="#3C4866" stroke-linecap="round" stroke-linejoin="round"/>
<path d="M12.5 13.75C13.1904 13.75 13.75 13.1904 13.75 12.5C13.75 11.8096 13.1904 11.25 12.5 11.25C11.8096 11.25 11.25 11.8096 11.25 12.5C11.25 13.1904 11.8096 13.75 12.5 13.75Z" stroke="#3C4866" stroke-linecap="round" stroke-linejoin="round"/>
<path d="M2.5 8.75C3.19036 8.75 3.75 8.19036 3.75 7.5C3.75 6.80964 3.19036 6.25 2.5 6.25C1.80964 6.25 1.25 6.80964 1.25 7.5C1.25 8.19036 1.80964 8.75 2.5 8.75Z" stroke="#3C4866" stroke-linecap="round" stroke-linejoin="round"/>
<path d="M3.75 7.5H11.25" stroke="#3C4866" stroke-linecap="round" stroke-linejoin="round"/>
<path d="M11.25 2.5H8.75C7.5 2.5 6.875 3.125 6.875 4.375V10.625C6.875 11.875 7.5 12.5 8.75 12.5H11.25" stroke="#3C4866" stroke-linecap="round" stroke-linejoin="round"/>
</svg>
