<svg width="21" height="21" viewBox="0 0 21 21" fill="none" xmlns="http://www.w3.org/2000/svg">
<path d="M13.6322 10.5002C13.6322 12.2327 12.2322 13.6327 10.4997 13.6327C8.76719 13.6327 7.36719 12.2327 7.36719 10.5002C7.36719 8.76768 8.76719 7.36768 10.4997 7.36768C12.2322 7.36768 13.6322 8.76768 13.6322 10.5002Z" stroke="#18143A" stroke-width="1.5" stroke-linecap="round" stroke-linejoin="round"/>
<path d="M10.5004 17.7361C13.5891 17.7361 16.4679 15.9161 18.4716 12.7661C19.2591 11.5324 19.2591 9.45863 18.4716 8.22488C16.4679 5.07488 13.5891 3.25488 10.5004 3.25488C7.4116 3.25488 4.53285 5.07488 2.5291 8.22488C1.7416 9.45863 1.7416 11.5324 2.5291 12.7661C4.53285 15.9161 7.4116 17.7361 10.5004 17.7361Z" stroke="#18143A" stroke-width="1.5" stroke-linecap="round" stroke-linejoin="round"/>
</svg>
