<svg width="15" height="15" viewBox="0 0 15 15" fill="none" xmlns="http://www.w3.org/2000/svg">
<path d="M7.5 1.25H5.4375C4.25 1.25 3.3125 2.1875 3.3125 3.3125C3.3125 4.4375 4.25 5.375 5.375 5.375H7.5V1.25Z" stroke="#3C4866" stroke-miterlimit="10"/>
<path d="M7.5 5.4375H5.4375C4.3125 5.4375 3.375 6.375 3.375 7.5C3.375 8.625 4.3125 9.5625 5.4375 9.5625H7.5V5.4375Z" stroke="#3C4866" stroke-miterlimit="10"/>
<path d="M7.5 9.5625H5.4375C4.3125 9.5625 3.375 10.5 3.375 11.625C3.375 12.75 4.3125 13.6875 5.4375 13.6875C6.5625 13.6875 7.5 12.75 7.5 11.625V9.5625Z" stroke="#3C4866" stroke-miterlimit="10"/>
<path d="M7.5 1.25H9.5625C10.6875 1.25 11.625 2.1875 11.625 3.3125C11.625 4.4375 10.6875 5.375 9.5625 5.375H7.5V1.25Z" stroke="#3C4866" stroke-miterlimit="10"/>
<path d="M9.5625 5.4375C10.6875 5.4375 11.625 6.375 11.625 7.5C11.625 8.625 10.6875 9.5625 9.5625 9.5625C8.4375 9.5625 7.5 8.625 7.5 7.5C7.5 6.375 8.4375 5.4375 9.5625 5.4375Z" stroke="#3C4866" stroke-miterlimit="10"/>
</svg>
