<svg width="15" height="15" viewBox="0 0 15 15" fill="none" xmlns="http://www.w3.org/2000/svg">
<path d="M7.5 13.75C10.9518 13.75 13.75 10.9518 13.75 7.5C13.75 4.04822 10.9518 1.25 7.5 1.25C4.04822 1.25 1.25 4.04822 1.25 7.5C1.25 10.9518 4.04822 13.75 7.5 13.75Z" stroke="#3C4866" stroke-linecap="round" stroke-linejoin="round"/>
<path d="M5.4251 7.44412L6.45635 7.70035L5.86261 10.1004C5.72511 10.6629 6.0001 10.8504 6.4751 10.5191L9.71261 8.27538C10.1064 8.00038 10.0501 7.68162 9.58135 7.56287L8.5501 7.30664L9.14386 4.90662C9.28136 4.34412 9.00635 4.15663 8.53135 4.48788L5.29386 6.73165C4.90011 7.00665 4.95635 7.32537 5.4251 7.44412Z" stroke="#3C4866" stroke-miterlimit="10" stroke-linecap="round" stroke-linejoin="round"/>
</svg>
