<svg width="15" height="15" viewBox="0 0 15 15" fill="none" xmlns="http://www.w3.org/2000/svg">
<path d="M5.10024 13.75C2.48774 13.75 1.96274 12.1687 2.81274 10.2437L5.46899 4.2125H5.28149C4.87524 4.2125 4.50024 4.05 4.23149 3.78125C3.95649 3.5125 3.79399 3.1375 3.79399 2.73125C3.79399 1.91875 4.45649 1.25 5.27524 1.25H9.71899C10.1315 1.25 10.5002 1.41875 10.769 1.6875C11.119 2.0375 11.294 2.55 11.1627 3.09375C10.994 3.76875 10.344 4.2125 9.65024 4.2125H9.55024L12.1877 10.25C13.0315 12.175 12.4815 13.75 9.89399 13.75H5.10024Z" stroke="#3C4866" stroke-linecap="round" stroke-linejoin="round"/>
<path d="M3.71289 8.19961C3.71289 8.19961 5.62539 8.12461 7.50039 8.74961C9.37539 9.37461 11.1441 8.19336 11.1441 8.19336" stroke="#3C4866" stroke-linecap="round" stroke-linejoin="round"/>
</svg>
