<?xml version="1.0" encoding="UTF-8"?>
<svg id="Layer_2" data-name="Layer 2" xmlns="http://www.w3.org/2000/svg" viewBox="0 0 76.22 120.75">
  <defs>
    <style>
      .cls-1 {
        fill: #fff;
      }

      .cls-2 {
        fill: #18143a;
      }
    </style>
  </defs>
  <g id="Layer_4" data-name="Layer 4">
    <g>
      <rect class="cls-1" x=".04" width="76.16" height="120.75"/>
      <path class="cls-2" d="m37.87,49.16c.36-.33,1.22-1.11,1.3-2.22.06-.79-.3-1.45-.45-1.72-.34-.63-.66-.79-1.96-2.08-.42-.42-.41-.43-.9-.92-3.2-3.25-4.96-5.04-6.86-6.86-2.44-2.33-4.81-4.81-4.81-4.81,0,0,5.66-6.68,12.69-7.5,2.37-.28,4.22.19,5.62.55,1.18.3,3.98,1.13,9.9,5.88,0,0,5.79,4.64,11.65,10.91,1.21,1.29,2.39,2.39,2.39,2.39,1.63,1.64,1.6,1.62,2.73,2.75,1.22,1.22,3.18,3.16,3.18,3.16,1.47,1.45,2.21,2.18,2.27,2.27,1,1.42,1.26,2.94,1.33,3.98h0c.25,2,.25,3.92.25,7.69v20.98c0,.8.03.84,0,.86-.31.17-2.37-3.67-5.52-7.35-.05-.06-1.23-1.29-3.62-3.71-3.52-3.58-5.27-5.37-6.57-6.65-2.99-2.96-3.25-3.1-3.99-3.95-.38-.44-.67-.71-1.25-1.25-1.02-.95-1.41-1.15-1.79-1.25-.2-.06-.75-.18-1.4-.01-.73.19-1.28.69-1.34.75-.09.08-.23.23-.45.46-.27.27-.46.48-.5.51-.6.63-3.87,3.86-4.71,4.69-1.64,1.63-2.75,2.82-3.69,3.82-3.19,3.41-3.29,3.82-3.31,4.16-.05.69.18,1.48,5.02,6.42.59.6.16.15,3,3,2.98,2.98,4.46,4.47,4.81,4.83.12.13.87.89,1.52,1.52.07.07.62.61.62.61,0,0-4.22,5.17-9.94,6.92-2.33.71-4.35.69-5.5.6-2.98-.24-5.11-1.34-6.87-2.26-3.22-1.7-5.3-3.67-6.26-4.49-5.97-5.14-10.01-9.3-13.92-13.24-7.71-7.78-8.99-8.74-9.58-9.68-.18-.28-.31-.59-.31-.59-.15-.31-.52-1.14-.66-2.17-.03-.19,0-.08,0-1.79,0-.93,0-1.14,0-1.84,0-.72.02-1.23.02-1.42.05-2.09-.01-5.5-.02-9.89,0-.42,0-.49,0-2.38,0-2.93,0-9.78,0-13.51.17.3.42.74.74,1.27,0,0,.36.61.67,1.11,1.13,1.83,2.78,3.79,2.78,3.79,6.74,7.41,8.82,9.43,12.22,13.05.09.1.38.39.76.77,1.46,1.48,1.95,1.91,3.2,3.14,2.26,2.21,2.71,2.8,3.72,2.92.23.03.8.09,1.43-.16.4-.16.66-.39,1.63-1.32.59-.57.88-.86,1.01-.99,8.52-8.65,9.69-9.72,9.69-9.72Z"/>
    </g>
  </g>
</svg>