<svg width="20" height="20" viewBox="0 0 20 20" fill="none" xmlns="http://www.w3.org/2000/svg">
<path d="M7.49996 18.3337H12.5C16.6666 18.3337 18.3333 16.667 18.3333 12.5003V7.50033C18.3333 3.33366 16.6666 1.66699 12.5 1.66699H7.49996C3.33329 1.66699 1.66663 3.33366 1.66663 7.50033V12.5003C1.66663 16.667 3.33329 18.3337 7.49996 18.3337Z" stroke="#18143A" stroke-width="1.5" stroke-linecap="round" stroke-linejoin="round"/>
<path d="M10 12.9163C11.6109 12.9163 12.9167 11.6105 12.9167 9.99967C12.9167 8.38884 11.6109 7.08301 10 7.08301C8.38921 7.08301 7.08337 8.38884 7.08337 9.99967C7.08337 11.6105 8.38921 12.9163 10 12.9163Z" stroke="#18143A" stroke-width="1.5" stroke-linecap="round" stroke-linejoin="round"/>
<path d="M14.6967 5.83366H14.7064" stroke="#18143A" stroke-width="2" stroke-linecap="round" stroke-linejoin="round"/>
</svg>
