<svg width="21" height="21" viewBox="0 0 21 21" fill="none" xmlns="http://www.w3.org/2000/svg">
<path d="M6.35245 1.75H14.6387C15.2075 1.75 15.715 1.76752 16.17 1.82877C18.5937 2.10002 19.25 3.23751 19.25 6.35251V11.8825C19.25 14.9975 18.5937 16.135 16.17 16.4062C15.715 16.4675 15.2162 16.485 14.6387 16.485H6.35245C5.7837 16.485 5.2762 16.4675 4.8212 16.4062C2.39745 16.135 1.74121 14.9975 1.74121 11.8825V6.35251C1.74121 3.23751 2.39745 2.10002 4.8212 1.82877C5.2762 1.76752 5.7837 1.75 6.35245 1.75Z" stroke="#18143A" stroke-width="1.5" stroke-linecap="round" stroke-linejoin="round"/>
<path d="M11.8828 7.28027H15.1028" stroke="#18143A" stroke-width="1.5" stroke-linecap="round" stroke-linejoin="round"/>
<path d="M5.89746 12.3467H5.91495H15.1112" stroke="#18143A" stroke-width="1.5" stroke-linecap="round" stroke-linejoin="round"/>
<path d="M6.125 19.25H14.875" stroke="#18143A" stroke-width="1.5" stroke-linecap="round" stroke-linejoin="round"/>
<path d="M6.295 7.2627H6.30286" stroke="#18143A" stroke-width="2" stroke-linecap="round" stroke-linejoin="round"/>
<path d="M9.18269 7.2627H9.19055" stroke="#18143A" stroke-width="2" stroke-linecap="round" stroke-linejoin="round"/>
</svg>
