<svg width="15" height="16" viewBox="0 0 15 16" fill="none" xmlns="http://www.w3.org/2000/svg">
<path d="M8.13145 2.64019L11.8189 4.27264C12.8814 4.73994 12.8814 5.51255 11.8189 5.97986L8.13145 7.61231C7.7127 7.79923 7.0252 7.79923 6.60645 7.61231L2.91895 5.97986C1.85645 5.51255 1.85645 4.73994 2.91895 4.27264L6.60645 2.64019C7.0252 2.45327 7.7127 2.45327 8.13145 2.64019Z" stroke="#3C4866" stroke-linecap="round" stroke-linejoin="round"/>
<path d="M1.875 7.67383C1.875 8.19721 2.26875 8.80159 2.75 9.01343L6.99375 10.8951C7.31875 11.0384 7.6875 11.0384 8.00625 10.8951L12.25 9.01343C12.7313 8.80159 13.125 8.19721 13.125 7.67383" stroke="#3C4866" stroke-linecap="round" stroke-linejoin="round"/>
<path d="M1.875 10.7891C1.875 11.3685 2.21875 11.8919 2.75 12.1287L6.99375 14.0103C7.31875 14.1537 7.6875 14.1537 8.00625 14.0103L12.25 12.1287C12.7813 11.8919 13.125 11.3685 13.125 10.7891" stroke="#3C4866" stroke-linecap="round" stroke-linejoin="round"/>
</svg>
