<svg width="40" height="46" viewBox="0 0 40 46" fill="none" xmlns="http://www.w3.org/2000/svg">
<g clip-path="url(#clip0_326_597)">
<path d="M39.6851 13.1602L39.4535 12.9287C39.3131 12.754 39.1233 12.5756 38.8766 12.3517L36.6598 10.135C36.0791 9.52383 35.4983 8.90891 34.8872 8.32816C33.107 6.63903 33.3537 6.74531 32.2377 5.75082C31.638 5.21561 29.835 3.73146 28.9923 3.14691C24.3273 -0.0833054 19.6319 0.00020183 19.6319 0.00020183C15.392 0.0761176 12.4503 2.14482 10.6018 3.44678C7.4019 5.70147 5.70139 8.30159 5.27247 9.911C4.99917 10.9359 5.09406 11.862 5.09406 11.862C5.19275 12.83 5.54956 13.5132 5.88359 14.1433C6.38463 15.0885 6.90845 15.6882 7.83083 16.7206C8.25595 17.1989 8.85948 17.8442 9.63382 18.5768L10.875 19.818C10.875 19.818 11.471 20.4481 12.196 21.1389L13.8813 22.8243C14.3026 23.2456 14.9859 23.2456 15.4072 22.8243L19.9014 18.3301C20.3228 17.9087 20.3228 17.2255 19.9014 16.8041L15.8513 12.754C15.4148 12.3099 14.9745 11.8658 14.5304 11.4293C14.5304 11.4293 14.5456 11.4141 14.5759 11.3876C14.8265 11.1636 15.2782 10.7537 15.8741 10.2792C16.7206 9.60354 17.548 8.94687 18.7741 8.67737C19.0056 8.62803 19.6129 8.51036 20.3911 8.57868C21.3932 8.66978 22.1447 9.02658 22.7103 9.29988C23.1506 9.51244 23.5606 9.77056 23.6061 9.80092C23.6061 9.80092 23.9477 10.0173 24.2856 10.2716C26.3277 11.8165 28.5103 14.0105 28.5103 14.0105C28.5368 14.037 28.776 14.2762 29.1518 14.6519C29.1594 14.6595 29.1669 14.6709 29.1745 14.6823L33.6687 19.1765C34.0901 19.5978 34.7733 19.5978 35.1947 19.1765L39.6889 14.6823C40.1102 14.261 40.1102 13.5777 39.6889 13.1564L39.6851 13.1602Z" fill="#18143A"/>
<path d="M0.315023 32.6745L0.546566 32.9061C0.68701 33.0807 0.876799 33.2591 1.12353 33.483L3.34026 35.6998C3.92102 36.3109 4.50178 36.9258 5.1129 37.5066C6.89312 39.1957 6.6464 39.0894 7.76236 40.0839C8.36209 40.6191 10.1651 42.1033 11.0078 42.6878C15.6766 45.9218 20.372 45.8383 20.372 45.8383C24.6119 45.7624 27.5536 43.6937 29.4021 42.3917C32.602 40.137 34.3025 37.5369 34.7314 35.9275C35.0047 34.9026 34.9098 33.9765 34.9098 33.9765C34.8111 33.0085 34.4543 32.3253 34.1203 31.6952C33.6193 30.7501 33.0954 30.1503 32.1731 29.1179C31.7479 28.6396 31.1444 27.9943 30.3701 27.2617L29.1288 26.0205C29.1288 26.0205 28.5329 25.3904 27.8079 24.6996L26.1226 23.0142C25.7012 22.5929 25.018 22.5929 24.5967 23.0142L20.1025 27.5085C19.6811 27.9298 19.6811 28.613 20.1025 29.0344L24.1526 33.0845C24.5891 33.5286 25.0294 33.9727 25.4735 34.4092C25.4735 34.4092 25.4583 34.4244 25.428 34.4509C25.1774 34.6749 24.7257 35.0848 24.1298 35.5593C23.2833 36.235 22.4558 36.8916 21.2298 37.1611C20.9983 37.2105 20.3909 37.3282 19.6128 37.2598C18.6107 37.1687 17.8592 36.8119 17.2936 36.5386C16.8533 36.3261 16.4433 36.068 16.3978 36.0376C16.3978 36.0376 16.0562 35.8212 15.7183 35.5669C13.6762 34.022 11.4936 31.8281 11.4936 31.8281C11.467 31.8015 11.2279 31.5624 10.8521 31.1866C10.8445 31.179 10.8369 31.1676 10.8294 31.1562L6.33514 26.662C5.91381 26.2407 5.23057 26.2407 4.80923 26.662L0.315023 31.1486C-0.10631 31.5699 -0.10631 32.2532 0.315023 32.6745Z" fill="#18143A"/>
</g>
<defs>
<clipPath id="clip0_326_597">
<rect width="40" height="45.8341" fill="white"/>
</clipPath>
</defs>
</svg>
