<?xml version="1.0" encoding="UTF-8"?>
<svg width="102px" height="120px" viewBox="0 0 102 120" version="1.1" xmlns="http://www.w3.org/2000/svg" xmlns:xlink="http://www.w3.org/1999/xlink">
    <!-- Generator: Sketch 53.2 (72643) - https://sketchapp.com -->
    <title>logo</title>
    <desc>Created with Sketch.</desc>
    <g id="Page-1" stroke="none" stroke-width="1" fill="none" fill-rule="evenodd">
        <g id="Portfolio-Info" transform="translate(-234.000000, -39.000000)">
            <g id="logo" transform="translate(234.000000, 50.000000)">
                <path d="M33.59,26.71 C34.96,27.9 36.23,29.2 37.34,30.64 C37.83,31.28 38.63,31.62 39.39,31.18 C40.02,30.81 40.42,29.77 39.93,29.13 C38.66,27.48 37.28,25.96 35.71,24.59 C34.26,23.33 32.13,25.44 33.59,26.71 L33.59,26.71 Z" id="Path" fill="#23203E" fill-rule="nonzero"></path>
                <g id="Group" transform="translate(18.000000, 0.000000)">
                    <path d="M8.88,26.26 C8.28,25.65 7.46,24.81 6.5,23.8 C5.08,22.29 4.28,21.65 4.18,21.46 C3.19,19.53 8.19,10.29 17.25,4.95 C20.12,3.25 23.38,1.86 26.79,1.04 C29.96,0.27 33.26,0 36.5,0.43 C42.51,1.23 48.65,4.12 51.49,6.1 C52.15,6.56 52.9,7.11 52.96,7.16 C52.96,7.16 52.96,7.16 52.96,7.16 C57.26,10.37 60.38,13.09 60.38,13.09 C61.42,13.99 62.79,15.23 64.36,16.77" id="Path" stroke="#23203E" stroke-width="22.5"></path>
                    <path d="M16.69,49.01 L1.33,34.67 C0.15,33.57 0.09,31.72 1.19,30.54 L12.53,18.39 C13.63,17.21 15.48,17.15 16.66,18.25 L32.02,32.59 C33.2,33.69 33.26,35.54 32.16,36.72 L20.82,48.87 C19.72,50.05 17.87,50.12 16.69,49.01 Z" id="Path" fill="#23203E" fill-rule="nonzero"></path>
                    <path d="M67.56,35.12 L52.55,21.11 C51.54,20.17 51.49,18.57 52.43,17.56 L64.34,4.8 C65.28,3.79 66.88,3.74 67.89,4.68 L82.9,18.69 C83.91,19.63 83.96,21.23 83.02,22.24 L71.1,35 C70.16,36.01 68.57,36.06 67.56,35.12 Z" id="Path" fill="#23203E" fill-rule="nonzero"></path>
                </g>
                <g id="Group" transform="translate(0.000000, 47.000000)">
                    <path d="M75.59,24.54 C76.19,25.15 77.01,25.99 77.97,27 C79.39,28.51 80.19,29.15 80.29,29.34 C81.28,31.27 76.28,40.51 67.22,45.85 C64.35,47.55 61.09,48.94 57.68,49.76 C54.51,50.53 51.21,50.8 47.97,50.37 C41.96,49.57 35.82,46.68 32.98,44.7 C32.32,44.24 31.57,43.69 31.51,43.64 C31.51,43.64 31.51,43.64 31.51,43.64 C27.21,40.43 24.09,37.71 24.09,37.71 C23.05,36.81 21.68,35.57 20.11,34.03" id="Path" stroke="#23203E" stroke-width="22.5"></path>
                    <path d="M67.79,1.79 L83.15,16.13 C84.33,17.23 84.39,19.08 83.29,20.26 L71.95,32.41 C70.85,33.59 69,33.65 67.82,32.55 L52.46,18.21 C51.28,17.11 51.22,15.26 52.32,14.08 L63.66,1.93 C64.76,0.75 66.61,0.68 67.79,1.79 Z" id="Path" fill="#23203E" fill-rule="nonzero"></path>
                    <path d="M16.92,15.68 L31.93,29.69 C32.94,30.63 32.99,32.23 32.05,33.24 L20.14,46 C19.2,47.01 17.6,47.06 16.59,46.12 L1.58,32.11 C0.57,31.17 0.52,29.57 1.46,28.56 L13.37,15.8 C14.31,14.79 15.91,14.74 16.92,15.68 Z" id="Path" fill="#23203E" fill-rule="nonzero"></path>
                </g>
            </g>
        </g>
    </g>
</svg>