<svg width="21" height="21" viewBox="0 0 21 21" fill="none" xmlns="http://www.w3.org/2000/svg">
<path d="M3.06227 17.9373C3.78852 18.6635 4.96102 18.6635 5.68727 17.9373L17.0623 6.56227C17.7885 5.83602 17.7885 4.66352 17.0623 3.93727C16.336 3.21102 15.1635 3.21102 14.4373 3.93727L3.06227 15.3123C2.33602 16.0385 2.33602 17.211 3.06227 17.9373Z" stroke="#18143A" stroke-width="1.5" stroke-linecap="round" stroke-linejoin="round"/>
<path d="M15.7588 7.86621L13.1338 5.24121" stroke="#18143A" stroke-width="1.5" stroke-linecap="round" stroke-linejoin="round"/>
<path d="M7.4375 2.135L8.75 1.75L8.365 3.0625L8.75 4.375L7.4375 3.99L6.125 4.375L6.51 3.0625L6.125 1.75L7.4375 2.135Z" stroke="#18143A" stroke-linecap="round" stroke-linejoin="round"/>
<path d="M3.9375 7.385L5.25 7L4.865 8.3125L5.25 9.625L3.9375 9.24L2.625 9.625L3.01 8.3125L2.625 7L3.9375 7.385Z" stroke="#18143A" stroke-linecap="round" stroke-linejoin="round"/>
<path d="M17.0625 11.76L18.375 11.375L17.99 12.6875L18.375 14L17.0625 13.615L15.75 14L16.135 12.6875L15.75 11.375L17.0625 11.76Z" stroke="#18143A" stroke-linecap="round" stroke-linejoin="round"/>
</svg>
