<svg width="16" height="15" viewBox="0 0 16 15" fill="none" xmlns="http://www.w3.org/2000/svg">
<path d="M11.875 5.625C11.875 6.53125 11.6062 7.36251 11.1437 8.05626C10.4687 9.05626 9.4 9.7625 8.15625 9.94375C7.94375 9.98125 7.725 10 7.5 10C7.275 10 7.05625 9.98125 6.84375 9.94375C5.6 9.7625 4.53125 9.05626 3.85625 8.05626C3.39375 7.36251 3.125 6.53125 3.125 5.625C3.125 3.20625 5.08125 1.25 7.5 1.25C9.91875 1.25 11.875 3.20625 11.875 5.625Z" stroke="#3C4866" stroke-linecap="round" stroke-linejoin="round"/>
<path d="M13.2814 11.5438L12.2502 11.7875C12.0189 11.8437 11.8377 12.0188 11.7877 12.25L11.5689 13.1688C11.4502 13.6688 10.8127 13.8188 10.4814 13.425L7.50017 10L4.51892 13.4312C4.18767 13.825 3.55017 13.675 3.43142 13.175L3.21267 12.2562C3.15642 12.025 2.97517 11.8438 2.75017 11.7938L1.71892 11.55C1.24392 11.4375 1.07517 10.8437 1.41892 10.5L3.85642 8.0625C4.53142 9.0625 5.60017 9.76876 6.84392 9.95001C7.05642 9.98751 7.27517 10.0063 7.50017 10.0063C7.72517 10.0063 7.94392 9.98751 8.15642 9.95001C9.40017 9.76876 10.4689 9.0625 11.1439 8.0625L13.5814 10.5C13.9252 10.8375 13.7564 11.4313 13.2814 11.5438Z" stroke="#3C4866" stroke-linecap="round" stroke-linejoin="round"/>
<path d="M7.86273 3.7375L8.23148 4.475C8.28148 4.575 8.41273 4.675 8.53148 4.69375L9.20023 4.80624C9.62523 4.87499 9.72523 5.1875 9.41898 5.49375L8.90023 6.01249C8.81273 6.09999 8.76273 6.26875 8.79398 6.39375L8.94398 7.0375C9.06273 7.54375 8.79398 7.74374 8.34398 7.47499L7.71898 7.10624C7.60648 7.03749 7.41898 7.03749 7.30648 7.10624L6.68148 7.47499C6.23148 7.73749 5.96273 7.54375 6.08148 7.0375L6.23148 6.39375C6.25648 6.275 6.21273 6.09999 6.12523 6.01249L5.60648 5.49375C5.30023 5.1875 5.40023 4.88124 5.82523 4.80624L6.49398 4.69375C6.60648 4.675 6.73773 4.575 6.78773 4.475L7.15648 3.7375C7.33773 3.3375 7.66273 3.3375 7.86273 3.7375Z" stroke="#3C4866" stroke-linecap="round" stroke-linejoin="round"/>
</svg>
