<svg width="13" height="15" viewBox="0 0 13 15" fill="none" xmlns="http://www.w3.org/2000/svg">
<path d="M12 4.25V10.75C12 13.35 11.3125 14 8.5625 14H4.4375C1.6875 14 1 13.35 1 10.75V4.25C1 1.65 1.6875 1 4.4375 1H8.5625C11.3125 1 12 1.65 12 4.25Z" stroke="#3C4866" stroke-linecap="round" stroke-linejoin="round"/>
<path d="M7.875 3.27539H5.125" stroke="#3C4866" stroke-linecap="round" stroke-linejoin="round"/>
<path d="M6.5002 12.1146C7.08872 12.1146 7.56582 11.6635 7.56582 11.1071C7.56582 10.5507 7.08872 10.0996 6.5002 10.0996C5.91167 10.0996 5.43457 10.5507 5.43457 11.1071C5.43457 11.6635 5.91167 12.1146 6.5002 12.1146Z" stroke="#3C4866" stroke-linecap="round" stroke-linejoin="round"/>
</svg>
