<svg width="21" height="21" viewBox="0 0 21 21" fill="none" xmlns="http://www.w3.org/2000/svg">
<path d="M17.5 7.21875V15.75C17.5 18.375 15.9338 19.25 14 19.25H7C5.06625 19.25 3.5 18.375 3.5 15.75V7.21875C3.5 4.375 5.06625 3.71875 7 3.71875C7 4.26125 7.21873 4.75125 7.57748 5.11C7.93623 5.46875 8.42625 5.6875 8.96875 5.6875H12.0312C13.1163 5.6875 14 4.80375 14 3.71875C15.9338 3.71875 17.5 4.375 17.5 7.21875Z" stroke="#292D32" stroke-width="1.5" stroke-linecap="round" stroke-linejoin="round"/>
<path d="M14 3.71875C14 4.80375 13.1163 5.6875 12.0312 5.6875H8.96875C8.42625 5.6875 7.93623 5.46875 7.57748 5.11C7.21873 4.75125 7 4.26125 7 3.71875C7 2.63375 7.88375 1.75 8.96875 1.75H12.0312C12.5738 1.75 13.0638 1.96875 13.4225 2.3275C13.7813 2.68625 14 3.17625 14 3.71875Z" stroke="#292D32" stroke-width="1.5" stroke-linecap="round" stroke-linejoin="round"/>
<path d="M7 11.375H10.5" stroke="#292D32" stroke-width="1.5" stroke-linecap="round" stroke-linejoin="round"/>
<path d="M7 14.875H14" stroke="#292D32" stroke-width="1.5" stroke-linecap="round" stroke-linejoin="round"/>
</svg>
