<svg width="21" height="21" viewBox="0 0 21 21" fill="none" xmlns="http://www.w3.org/2000/svg">
<g clip-path="url(#clip0_942_6356)">
<path d="M3.29878 13.6149L6.32628 16.6424C8.45253 18.7687 9.17878 18.7337 11.2788 16.6424L16.1525 11.7687C17.85 10.0712 18.2788 8.94241 16.1525 6.81616L13.125 3.78866C10.8588 1.52241 9.87003 2.09116 8.17253 3.78866L3.29878 8.66241C1.20753 10.7624 1.03253 11.3487 3.29878 13.6149Z" stroke="#18143A" stroke-width="1.5" stroke-linecap="round" stroke-linejoin="round"/>
<path d="M16.7995 14.6913L16.222 15.6451C15.4083 17.0013 16.0383 18.1126 17.622 18.1126C19.2058 18.1126 19.8358 17.0013 19.022 15.6451L18.4445 14.6913C17.9895 13.9388 17.2458 13.9388 16.7995 14.6913Z" stroke="#18143A" stroke-width="1.5" stroke-linecap="round" stroke-linejoin="round"/>
<path d="M1.75 10.71C6.615 9.38872 11.7425 9.34497 16.625 10.5962L17.0625 10.71" stroke="#18143A" stroke-width="1.5" stroke-linecap="round" stroke-linejoin="round"/>
</g>
<defs>
<clipPath id="clip0_942_6356">
<rect width="21" height="21" fill="white"/>
</clipPath>
</defs>
</svg>
