<svg width="15" height="15" viewBox="0 0 15 15" fill="none" xmlns="http://www.w3.org/2000/svg">
<path d="M6.71932 14.0623H8.29432C8.89432 14.0623 9.28182 13.6373 9.16932 13.1185L8.91307 11.9873H6.10057L5.84432 13.1185C5.73182 13.606 6.15682 14.0623 6.71932 14.0623Z" stroke="#3C4866" stroke-linecap="round" stroke-linejoin="round"/>
<path d="M8.91284 11.9809L9.99409 11.0184C10.6003 10.4809 10.6253 10.1058 10.1441 9.49957L8.23784 7.08086C7.83784 6.57461 7.18159 6.57461 6.78159 7.08086L4.87534 9.49957C4.39409 10.1058 4.39409 10.4996 5.02534 11.0184L6.10659 11.9809" stroke="#3C4866" stroke-linecap="round" stroke-linejoin="round"/>
<path d="M7.50684 6.94922V8.53049" stroke="#3C4866" stroke-linecap="round" stroke-linejoin="round"/>
<path d="M6.96855 3.24415L6.48105 2.75663C6.1873 2.46288 6.1873 1.98791 6.48105 1.69416L6.96855 1.20664C7.2623 0.912891 7.7373 0.912891 8.03105 1.20664L8.51855 1.69416C8.8123 1.98791 8.8123 2.46288 8.51855 2.75663L8.03105 3.24415C7.7373 3.5379 7.2623 3.5379 6.96855 3.24415Z" stroke="#3C4866" stroke-linecap="round" stroke-linejoin="round"/>
<path d="M12.1562 6.13086H12.8438C13.2563 6.13086 13.5938 6.46837 13.5938 6.88087V7.56835C13.5938 7.98085 13.2563 8.3184 12.8438 8.3184H12.1562C11.7437 8.3184 11.4062 7.98085 11.4062 7.56835V6.88087C11.4062 6.46837 11.7437 6.13086 12.1562 6.13086Z" stroke="#3C4866" stroke-linecap="round" stroke-linejoin="round"/>
<path d="M2.84375 6.13086H2.15625C1.74375 6.13086 1.40625 6.46837 1.40625 6.88087V7.56835C1.40625 7.98085 1.74375 8.3184 2.15625 8.3184H2.84375C3.25625 8.3184 3.59375 7.98085 3.59375 7.56835V6.88087C3.59375 6.46837 3.25625 6.13086 2.84375 6.13086Z" stroke="#3C4866" stroke-linecap="round" stroke-linejoin="round"/>
<path d="M11.5879 6.31249L8.27539 3" stroke="#3C4866" stroke-linecap="round" stroke-linejoin="round"/>
<path d="M3.41211 6.31249L6.72461 3" stroke="#3C4866" stroke-linecap="round" stroke-linejoin="round"/>
</svg>
