<svg width="15" height="15" viewBox="0 0 15 15" fill="none" xmlns="http://www.w3.org/2000/svg">
<path d="M11.2498 4.475C11.2123 4.46875 11.1686 4.46875 11.1311 4.475C10.2686 4.44375 9.58105 3.7375 9.58105 2.8625C9.58105 1.96875 10.2998 1.25 11.1936 1.25C12.0873 1.25 12.8061 1.975 12.8061 2.8625C12.7998 3.7375 12.1123 4.44375 11.2498 4.475Z" stroke="#3C4866" stroke-linecap="round" stroke-linejoin="round"/>
<path d="M10.6057 9.0251C11.4619 9.16885 12.4057 9.01885 13.0682 8.5751C13.9494 7.9876 13.9494 7.0251 13.0682 6.4376C12.3994 5.99385 11.4432 5.84385 10.5869 5.99385" stroke="#3C4866" stroke-linecap="round" stroke-linejoin="round"/>
<path d="M3.73203 4.475C3.76953 4.46875 3.81328 4.46875 3.85078 4.475C4.71328 4.44375 5.40078 3.7375 5.40078 2.8625C5.40078 1.96875 4.68203 1.25 3.78828 1.25C2.89453 1.25 2.17578 1.975 2.17578 2.8625C2.18203 3.7375 2.86953 4.44375 3.73203 4.475Z" stroke="#3C4866" stroke-linecap="round" stroke-linejoin="round"/>
<path d="M4.37539 9.0251C3.51914 9.16885 2.57539 9.01885 1.91289 8.5751C1.03164 7.9876 1.03164 7.0251 1.91289 6.4376C2.58164 5.99385 3.53789 5.84385 4.39414 5.99385" stroke="#3C4866" stroke-linecap="round" stroke-linejoin="round"/>
<path d="M7.4998 9.14395C7.4623 9.1377 7.41855 9.1377 7.38105 9.14395C6.51855 9.1127 5.83105 8.40645 5.83105 7.53145C5.83105 6.6377 6.5498 5.91895 7.44355 5.91895C8.3373 5.91895 9.05605 6.64395 9.05605 7.53145C9.0498 8.40645 8.3623 9.11895 7.4998 9.14395Z" stroke="#3C4866" stroke-linecap="round" stroke-linejoin="round"/>
<path d="M5.68145 11.1131C4.8002 11.7006 4.8002 12.6631 5.68145 13.2506C6.68145 13.9193 8.31894 13.9193 9.31894 13.2506C10.2002 12.6631 10.2002 11.7006 9.31894 11.1131C8.32519 10.4506 6.68145 10.4506 5.68145 11.1131Z" stroke="#3C4866" stroke-linecap="round" stroke-linejoin="round"/>
</svg>
