<svg width="22" height="22" viewBox="0 0 22 22" fill="none" xmlns="http://www.w3.org/2000/svg">
<path d="M8.39635 9.96384C8.30469 9.95467 8.19469 9.95467 8.09385 9.96384C5.91219 9.89051 4.17969 8.10301 4.17969 5.90301C4.17969 3.65717 5.99469 1.83301 8.24969 1.83301C10.4955 1.83301 12.3197 3.65717 12.3197 5.90301C12.3105 8.10301 10.578 9.89051 8.39635 9.96384Z" stroke="#18143A" stroke-width="1.5" stroke-linecap="round" stroke-linejoin="round"/>
<path d="M15.042 3.66699C16.8204 3.66699 18.2504 5.10616 18.2504 6.87533C18.2504 8.60783 16.8754 10.0195 15.1612 10.0837C15.0879 10.0745 15.0054 10.0745 14.9229 10.0837" stroke="#18143A" stroke-width="1.5" stroke-linecap="round" stroke-linejoin="round"/>
<path d="M3.81316 13.347C1.59483 14.832 1.59483 17.252 3.81316 18.7278C6.334 20.4145 10.4682 20.4145 12.989 18.7278C15.2073 17.2428 15.2073 14.8228 12.989 13.347C10.4773 11.6695 6.34316 11.6695 3.81316 13.347Z" stroke="#18143A" stroke-width="1.5" stroke-linecap="round" stroke-linejoin="round"/>
<path d="M16.8115 18.333C17.4715 18.1955 18.0949 17.9297 18.6082 17.5355C20.0382 16.463 20.0382 14.6938 18.6082 13.6213C18.104 13.2363 17.4899 12.9797 16.839 12.833" stroke="#18143A" stroke-width="1.5" stroke-linecap="round" stroke-linejoin="round"/>
</svg>
