<svg width="21" height="21" viewBox="0 0 21 21" fill="none" xmlns="http://www.w3.org/2000/svg">
<path d="M4.78613 7.875C6.4775 7.875 7.84863 6.50387 7.84863 4.8125C7.84863 3.12113 6.4775 1.75 4.78613 1.75C3.09476 1.75 1.72363 3.12113 1.72363 4.8125C1.72363 6.50387 3.09476 7.875 4.78613 7.875Z" stroke="#18143A" stroke-width="1.5"/>
<path d="M14.8486 13.125H17.4736C18.4361 13.125 19.2236 13.9125 19.2236 14.875V17.5C19.2236 18.4625 18.4361 19.25 17.4736 19.25H14.8486C13.8861 19.25 13.0986 18.4625 13.0986 17.5V14.875C13.0986 13.9125 13.8861 13.125 14.8486 13.125Z" stroke="#18143A" stroke-width="1.5"/>
<path d="M10.5 4.375H12.845C14.4637 4.375 15.2162 6.37875 14 7.44625L7.00873 13.5625C5.79248 14.6213 6.54498 16.625 8.15498 16.625H10.5" stroke="#18143A" stroke-width="1.5" stroke-linecap="round" stroke-linejoin="round"/>
<path d="M4.80074 4.8125H4.81085" stroke="#18143A" stroke-width="2" stroke-linecap="round" stroke-linejoin="round"/>
<path d="M16.1757 16.1875H16.1859" stroke="#18143A" stroke-width="2" stroke-linecap="round" stroke-linejoin="round"/>
</svg>
