<svg width="21" height="21" viewBox="0 0 21 21" fill="none" xmlns="http://www.w3.org/2000/svg">
<path d="M1.81154 4.02502C2.51154 0.99752 7.07029 0.99752 7.76154 4.02502C8.17279 5.80127 7.04404 7.30627 6.06404 8.24252C5.34654 8.92502 4.21779 8.91627 3.50029 8.24252C2.52904 7.30627 1.40029 5.80127 1.81154 4.02502Z" stroke="#18143A" stroke-width="1.5"/>
<path d="M13.1865 14.525C13.8865 11.4975 18.4715 11.4975 19.1715 14.525C19.5827 16.3013 18.454 17.8063 17.4652 18.7425C16.7477 19.425 15.6102 19.4163 14.8927 18.7425C13.904 17.8063 12.7752 16.3013 13.1865 14.525Z" stroke="#18143A" stroke-width="1.5"/>
<path d="M10.5 4.375H12.845C14.4637 4.375 15.2162 6.37875 14 7.44625L7.00873 13.5625C5.79248 14.6213 6.54498 16.625 8.15498 16.625H10.5" stroke="#18143A" stroke-width="1.5" stroke-linecap="round" stroke-linejoin="round"/>
<path d="M4.80074 4.8125H4.81085" stroke="#18143A" stroke-width="2" stroke-linecap="round" stroke-linejoin="round"/>
<path d="M16.1757 15.3125H16.1859" stroke="#18143A" stroke-width="2" stroke-linecap="round" stroke-linejoin="round"/>
</svg>
