<svg width="15" height="15" viewBox="0 0 15 15" fill="none" xmlns="http://www.w3.org/2000/svg">
<path d="M12.4189 11.875V3.125C12.4189 1.875 11.7939 1.25 10.5439 1.25H8.04395C6.79395 1.25 6.16895 1.875 6.16895 3.125V11.875C6.16895 13.125 6.79395 13.75 8.04395 13.75H10.5439C11.7939 13.75 12.4189 13.125 12.4189 11.875Z" stroke="#3C4866" stroke-linecap="round"/>
<path d="M6.16895 3.75H9.29394" stroke="#3C4866" stroke-linecap="round"/>
<path d="M6.16895 11.25H8.66895" stroke="#3C4866" stroke-linecap="round"/>
<path d="M6.16895 8.71875L9.29394 8.75" stroke="#3C4866" stroke-linecap="round"/>
<path d="M6.16895 6.25H8.04395" stroke="#3C4866" stroke-linecap="round"/>
<path d="M2.43105 1.25C1.4123 1.25 0.581055 2.08125 0.581055 3.09375V11.1937C0.581055 11.475 0.699805 11.9 0.843555 12.1438L1.35605 12.9938C1.94355 13.975 2.9123 13.975 3.4998 12.9938L4.01231 12.1438C4.15606 11.9 4.2748 11.475 4.2748 11.1937V3.09375C4.2748 2.08125 3.44355 1.25 2.43105 1.25Z" stroke="#3C4866" stroke-linecap="round"/>
<path d="M4.2748 4.375H0.581055" stroke="#3C4866" stroke-linecap="round"/>
</svg>
