<svg width="110" height="18" viewBox="0 0 110 18" fill="none" xmlns="http://www.w3.org/2000/svg">
<g clip-path="url(#clip0_942_6554)">
<path d="M38.5841 8.32778C37.4231 7.91829 36.4021 7.62955 36.4021 7.01532V6.97507C36.4021 6.54458 36.7829 6.21559 37.5222 6.21559C38.2614 6.21559 39.1697 6.53583 40.1293 7.07132C40.2932 7.16231 40.4997 7.10106 40.5902 6.93307L41.4302 5.37561C41.519 5.20937 41.4644 5.00287 41.3056 4.90488C40.1924 4.2154 38.8368 3.81641 37.5819 3.81641C35.4204 3.81641 33.6585 5.06762 33.6585 7.30406V7.34431C33.6585 9.4775 35.359 10.195 36.8614 10.6465C38.0429 11.0157 39.0827 11.2415 39.0827 11.9187V11.9589C39.0827 12.4507 38.6831 12.7797 37.8022 12.7797C36.9212 12.7797 35.7739 12.3982 34.6999 11.6667C34.5429 11.5599 34.3312 11.6072 34.2287 11.7699L33.2931 13.2451C33.1924 13.4044 33.235 13.6126 33.3836 13.7229C34.746 14.7291 36.3134 15.1806 37.7219 15.1806C40.0439 15.1806 41.8246 14.0729 41.8246 11.6317V11.5897C41.8246 9.579 40.0832 8.84052 38.5824 8.32778H38.5841Z" fill="#18143A"/>
<path d="M51.9045 11.6019C51.7781 11.4707 51.5732 11.4637 51.4366 11.5862C50.7793 12.1742 50.1237 12.5347 49.212 12.5347C47.5508 12.5347 46.4905 11.1802 46.4905 9.49851V9.45826C46.4905 7.8378 47.5712 6.46234 49.0925 6.46234C50.0435 6.46234 50.6854 6.82808 51.2881 7.41781C51.4264 7.55256 51.6449 7.54906 51.7747 7.40556L53.1764 5.86036C53.301 5.72211 53.2976 5.50862 53.1696 5.37562C52.2049 4.3729 50.9842 3.77441 49.1113 3.77441C45.8281 3.77441 43.4873 6.35909 43.4873 9.49851V9.53875C43.4873 12.6782 45.8485 15.2208 49.072 15.2208C51.0576 15.2208 52.234 14.4981 53.2242 13.4621C53.354 13.3256 53.354 13.1069 53.2242 12.9704L51.9062 11.6037L51.9045 11.6019Z" fill="#18143A"/>
<path d="M61.5549 3.77246C59.9705 3.82496 59.0587 4.77868 58.48 6.19614V4.3307C58.48 4.1382 58.3263 3.98071 58.1385 3.98071H55.779C55.5912 3.98071 55.4375 4.1382 55.4375 4.3307V14.6257C55.4375 14.8182 55.5912 14.9757 55.779 14.9757H58.1385C58.3263 14.9757 58.48 14.8182 58.48 14.6257V10.914C58.48 8.52008 59.4651 7.16912 61.5788 7.04662C61.7598 7.03612 61.9015 6.88387 61.9015 6.69838V4.1242C61.9015 3.92821 61.7444 3.76721 61.5532 3.77421L61.5549 3.77246Z" fill="#18143A"/>
<path d="M73.2105 3.97949H70.851C70.6632 3.97949 70.5096 4.13699 70.5096 4.32948V10.1131C70.5096 11.59 69.7686 12.3495 68.6076 12.3495C67.4466 12.3495 66.7671 11.59 66.7671 10.1131V4.32948C66.7671 4.13699 66.6134 3.97949 66.4256 3.97949H64.0661C63.8783 3.97949 63.7246 4.13699 63.7246 4.32948V11.0983C63.7246 13.6217 65.0649 15.1809 67.3664 15.1809C68.9081 15.1809 69.8078 14.3392 70.5078 13.417V14.6262C70.5078 14.8187 70.6615 14.9762 70.8493 14.9762H73.2088C73.3966 14.9762 73.5503 14.8187 73.5503 14.6262V4.32948C73.5503 4.13699 73.3966 3.97949 73.2088 3.97949H73.2105Z" fill="#18143A"/>
<path d="M82.4593 3.77421C80.9176 3.77421 80.0179 4.61594 79.3179 5.53816V4.32895C79.3179 4.13645 79.1642 3.97896 78.9764 3.97896H76.6169C76.4291 3.97896 76.2754 4.13645 76.2754 4.32895V14.6239C76.2754 14.8164 76.4291 14.9739 76.6169 14.9739H78.9764C79.1642 14.9739 79.3179 14.8164 79.3179 14.6239V8.84032C79.3179 7.36336 80.0588 6.60388 81.2181 6.60388C82.3774 6.60388 83.0603 7.36336 83.0603 8.84032V14.6239C83.0603 14.8164 83.214 14.9739 83.4018 14.9739H85.7613C85.9491 14.9739 86.1028 14.8164 86.1028 14.6239V7.8551C86.1028 5.33167 84.7625 3.77246 82.4611 3.77246L82.4593 3.77421Z" fill="#18143A"/>
<path d="M96.6398 11.6019C96.5135 11.4707 96.3086 11.4637 96.172 11.5862C95.5147 12.1742 94.8591 12.5347 93.9473 12.5347C92.2861 12.5347 91.2259 11.1802 91.2259 9.49851V9.45826C91.2259 7.8378 92.3066 6.46234 93.8278 6.46234C94.7788 6.46234 95.4191 6.82808 96.0235 7.41781C96.1618 7.55256 96.3803 7.54906 96.5101 7.40556L97.9118 5.86036C98.0364 5.72211 98.033 5.50862 97.9049 5.37562C96.9403 4.3729 95.7196 3.77441 93.8466 3.77441C90.5634 3.77441 88.2227 6.35909 88.2227 9.49851V9.53875C88.2227 12.6782 90.5839 15.2208 93.8073 15.2208C95.793 15.2208 96.9693 14.4981 97.9596 13.4621C98.0893 13.3256 98.0893 13.1069 97.9596 12.9704L96.6415 11.6037L96.6398 11.6019Z" fill="#18143A"/>
<path d="M106.359 3.77465C104.817 3.77465 103.917 4.61637 103.217 5.5386V0.34999C103.217 0.157496 103.064 0 102.876 0H100.516C100.327 0 100.175 0.157496 100.175 0.34999V14.6243C100.175 14.8168 100.328 14.9743 100.516 14.9743H102.876C103.064 14.9743 103.217 14.8168 103.217 14.6243V8.84075C103.217 7.3638 103.958 6.60432 105.119 6.60432C106.28 6.60432 106.96 7.3638 106.96 8.84075V14.6243C106.96 14.8168 107.113 14.9743 107.301 14.9743H109.661C109.849 14.9743 110.002 14.8168 110.002 14.6243V7.85553C110.002 5.3321 108.662 3.7729 106.36 3.7729L106.359 3.77465Z" fill="#18143A"/>
<path d="M9.11682 17.928C8.49193 17.7688 7.96778 17.3295 7.6451 16.7591L0.0662504 3.31768C-0.0720435 3.07269 0.00990846 2.75945 0.248935 2.6177L3.42287 0.741756C3.66189 0.60001 3.9675 0.684007 4.1058 0.929001L9.54877 10.5747C9.61365 10.6885 9.77243 10.6885 9.83731 10.5747L15.0925 1.24224C15.4152 0.670008 15.9376 0.23252 16.5642 0.0732743C17.604 -0.190968 18.6471 0.288518 19.1576 1.19499L26.7058 14.6101C26.844 14.8551 26.7621 15.1684 26.5231 15.3101L23.3508 17.1878C23.1118 17.3295 22.8062 17.2455 22.6679 17.0006L17.283 7.42482C17.2181 7.31107 17.0593 7.31107 16.9944 7.42482L11.7103 16.8063C11.1998 17.7145 10.1566 18.194 9.11682 17.928Z" fill="#18143A"/>
</g>
<defs>
<clipPath id="clip0_942_6554">
<rect width="110" height="18" fill="white"/>
</clipPath>
</defs>
</svg>
