<svg width="15" height="15" viewBox="0 0 15 15" fill="none" xmlns="http://www.w3.org/2000/svg">
<path d="M8.58156 2.19414L9.68156 4.39414C9.83156 4.70039 10.2316 4.99414 10.5691 5.05039L12.5628 5.38164C13.8378 5.59414 14.1378 6.51914 13.2191 7.43164L11.6691 8.98164C11.4066 9.24414 11.2628 9.75039 11.3441 10.1129L11.7878 12.0316C12.1378 13.5504 11.3316 14.1379 9.98781 13.3441L8.11906 12.2379C7.78156 12.0379 7.22531 12.0379 6.88156 12.2379L5.01281 13.3441C3.67531 14.1379 2.86281 13.5441 3.21281 12.0316L3.65656 10.1129C3.73781 9.75039 3.59406 9.24414 3.33156 8.98164L1.78156 7.43164C0.869059 6.51914 1.16281 5.59414 2.43781 5.38164L4.43156 5.05039C4.76281 4.99414 5.16281 4.70039 5.31281 4.39414L6.41281 2.19414C7.01281 1.00039 7.98781 1.00039 8.58156 2.19414Z" stroke="#3C4866" stroke-linecap="round" stroke-linejoin="round"/>
</svg>
