<svg width="15" height="15" viewBox="0 0 15 15" fill="none" xmlns="http://www.w3.org/2000/svg">
<path d="M6.28145 1.58106L2.51895 4.03731C1.3127 4.82481 1.3127 6.58731 2.51895 7.37481L6.28145 9.83106C6.95645 10.2748 8.06894 10.2748 8.74394 9.83106L12.4877 7.37481C13.6877 6.58731 13.6877 4.83106 12.4877 4.04356L8.74394 1.58731C8.06894 1.13731 6.95645 1.13731 6.28145 1.58106Z" stroke="#3C4866" stroke-linecap="round" stroke-linejoin="round"/>
<path d="M3.51895 8.1748L3.5127 11.1061C3.5127 11.8998 4.1252 12.7498 4.8752 12.9998L6.86895 13.6623C7.2127 13.7748 7.78145 13.7748 8.13145 13.6623L10.1252 12.9998C10.8752 12.7498 11.4877 11.8998 11.4877 11.1061V8.20605" stroke="#3C4866" stroke-linecap="round" stroke-linejoin="round"/>
<path d="M13.375 9.375V5.625" stroke="#3C4866" stroke-linecap="round" stroke-linejoin="round"/>
</svg>
