<svg width="21" height="21" viewBox="0 0 21 21" fill="none" xmlns="http://www.w3.org/2000/svg">
<path d="M18.4446 7.50753V13.4925C18.4446 14.4725 17.9196 15.3825 17.0709 15.8813L11.8734 18.8825C11.0246 19.3725 9.97465 19.3725 9.11715 18.8825L3.91965 15.8813C3.0709 15.3913 2.5459 14.4813 2.5459 13.4925V7.50753C2.5459 6.52753 3.0709 5.61749 3.91965 5.11874L9.11715 2.1175C9.9659 1.6275 11.0159 1.6275 11.8734 2.1175L17.0709 5.11874C17.9196 5.61749 18.4446 6.51878 18.4446 7.50753Z" stroke="#18143A" stroke-width="1.5" stroke-linecap="round" stroke-linejoin="round"/>
<path d="M10.4997 9.62533C11.6257 9.62533 12.5384 8.71253 12.5384 7.58656C12.5384 6.46059 11.6257 5.54785 10.4997 5.54785C9.37372 5.54785 8.46094 6.46059 8.46094 7.58656C8.46094 8.71253 9.37372 9.62533 10.4997 9.62533Z" stroke="#18143A" stroke-width="1.5" stroke-linecap="round" stroke-linejoin="round"/>
<path d="M14 14.578C14 13.003 12.4338 11.7256 10.5 11.7256C8.56625 11.7256 7 13.003 7 14.578" stroke="#18143A" stroke-width="1.5" stroke-linecap="round" stroke-linejoin="round"/>
</svg>
