<svg width="15" height="15" viewBox="0 0 15 15" fill="none" xmlns="http://www.w3.org/2000/svg">
<path d="M11.3371 13.5127C10.7871 13.6752 10.1371 13.7502 9.37461 13.7502H5.62461C4.86211 13.7502 4.21211 13.6752 3.66211 13.5127C3.79961 11.8877 5.46836 10.6064 7.49961 10.6064C9.53086 10.6064 11.1996 11.8877 11.3371 13.5127Z" stroke="#3C4866" stroke-linecap="round" stroke-linejoin="round"/>
<path d="M9.375 1.25H5.625C2.5 1.25 1.25 2.5 1.25 5.625V9.375C1.25 11.7375 1.9625 13.0312 3.6625 13.5125C3.8 11.8875 5.46875 10.6062 7.5 10.6062C9.53125 10.6062 11.2 11.8875 11.3375 13.5125C13.0375 13.0312 13.75 11.7375 13.75 9.375V5.625C13.75 2.5 12.5 1.25 9.375 1.25ZM7.5 8.85624C6.2625 8.85624 5.2625 7.85001 5.2625 6.61251C5.2625 5.37501 6.2625 4.375 7.5 4.375C8.7375 4.375 9.7375 5.37501 9.7375 6.61251C9.7375 7.85001 8.7375 8.85624 7.5 8.85624Z" stroke="#3C4866" stroke-linecap="round" stroke-linejoin="round"/>
<path d="M9.7377 6.61251C9.7377 7.85001 8.7377 8.85624 7.5002 8.85624C6.2627 8.85624 5.2627 7.85001 5.2627 6.61251C5.2627 5.37501 6.2627 4.375 7.5002 4.375C8.7377 4.375 9.7377 5.37501 9.7377 6.61251Z" stroke="#3C4866" stroke-linecap="round" stroke-linejoin="round"/>
</svg>
